<svg xmlns="http://www.w3.org/2000/svg" style="display: none;">
  <symbol id="icon-arrow" viewBox="0 0 24 24" stroke="none">
    <path d="m12 4 1.4 1.4L7.8 11H20v2H7.8l5.6 5.6L12 20l-8-8 8-8Z" />
  </symbol>
  <symbol id="icon-arrows" viewBox="0 0 32 32" fill="none">
    <path stroke-width="2" d="M10.05 10v13.33m4.71-9.28-4.71-4.72-4.72 4.72m15.71 7.28V8m-4.72 9.29L21.04 22l4.71-4.71" />
  </symbol>
  <symbol id="icon-compare" viewBox="0 0 24 24" stroke="none">
    <path d="M4.5 9h2.25v12H4.5zM18 9h2.25v12H18zm-6.75-6h2.25v18h-2.25z" />
  </symbol>
  <symbol id="icon-dots" viewBox="0 0 24 24" stroke="none">
    <path
      d="M12 8a2 2 0 0 0 2-2 2 2 0 0 0-2-2 2 2 0 0 0-2 2c0 1.1.9 2 2 2Zm0 2a2 2 0 0 0-2 2c0 1.1.9 2 2 2a2 2 0 0 0 2-2 2 2 0 0 0-2-2Zm0 6a2 2 0 0 0-2 2c0 1.1.9 2 2 2a2 2 0 0 0 2-2 2 2 0 0 0-2-2Z" />
  </symbol>
  <symbol id="icon-down" viewBox="0 0 24 24" stroke="none">
    <path d="m18.3 9.7-1.41-1.4-4.6 4.57L7.72 8.3 6.3 9.7l6 6 6-6Z" />
  </symbol>
  <symbol id="icon-filter" viewBox="0 0 32 32" stroke="none">
    <path d="M9.33 14.67h13.34v2.66H9.33v-2.66Zm-4-5.34h21.34V12H5.33V9.33Zm8 10.67h5.34v2.67h-5.34V20Z" />
  </symbol>
  <symbol id="icon-grid" viewBox="0 0 32 32" fill="none">
    <path stroke-width="2.03" d="M9.02 9.02h4.97v4.97H9.02zm9 0h4.97v4.97h-4.97zm-9 9h4.97v4.97H9.02zm9 0h4.97v4.97h-4.97z" />
  </symbol>
  <symbol id="icon-heart" viewBox="0 0 24 24" stroke="none">
    <path
      d="M12 21a59.66 59.66 0 0 0-2.15-1.8c-2.72-2.22-5.8-4.73-7.16-7.74-.44-.96-.68-2-.69-3.06A5.39 5.39 0 0 1 7.5 3 6.16 6.16 0 0 1 12 5a6 6 0 0 1 4.5-2A5.39 5.39 0 0 1 22 8.4a7.42 7.42 0 0 1-.7 3.06c-1.35 3.01-4.43 5.52-7.14 7.74h-.01c-.78.64-1.5 1.23-2.15 1.8ZM7.5 5A3.53 3.53 0 0 0 5 6c-.65.63-1 1.5-1 2.4.01.77.19 1.53.51 2.23a12.1 12.1 0 0 0 2.56 3.47c.99 1 2.13 1.97 3.12 2.78l.83.68.17.14.81.67.01-.01h.02v-.01h.01l.02-.02.04-.03h.01l.01-.02h.02l.66-.55.17-.14.84-.68a41.9 41.9 0 0 0 3.11-2.79 12.3 12.3 0 0 0 2.56-3.47c.33-.7.51-1.47.52-2.25 0-.9-.36-1.77-1-2.4a3.54 3.54 0 0 0-2.5-1 3.99 3.99 0 0 0-2.99 1.31L12 8.05l-1.51-1.74A3.99 3.99 0 0 0 7.5 5Z" />
  </symbol>
  <symbol id="icon-list" viewBox="0 0 32 32" fill="none">
    <path stroke-width="2.03" d="M8 9.33h16V14H8zM8 18h16v4.67H8z" />
  </symbol>
</svg>
